<svg width="512" height="512" viewBox="0 0 512 512" fill="none" xmlns="http://www.w3.org/2000/svg">
<circle cx="256" cy="256" r="256" fill="white"/>
<path fill-rule="evenodd" clip-rule="evenodd" d="M256 331C297.421 331 331 297.421 331 256C331 214.579 297.421 181 256 181C214.579 181 181 214.579 181 256C181 297.421 214.579 331 256 331ZM256 306C283.614 306 306 283.614 306 256C306 228.386 283.614 206 256 206C228.386 206 206 228.386 206 256C206 283.614 228.386 306 256 306Z" fill="#0F0F0F"/>
<path d="M331 168.5C324.096 168.5 318.5 174.096 318.5 181C318.5 187.904 324.096 193.5 331 193.5C337.904 193.5 343.5 187.904 343.5 181C343.5 174.096 337.904 168.5 331 168.5Z" fill="#0F0F0F"/>
<path fill-rule="evenodd" clip-rule="evenodd" d="M126.674 159.451C118.5 175.494 118.5 196.496 118.5 238.5V273.5C118.5 315.504 118.5 336.506 126.674 352.549C133.865 366.661 145.339 378.135 159.451 385.325C175.494 393.5 196.496 393.5 238.5 393.5H273.5C315.504 393.5 336.506 393.5 352.549 385.325C366.661 378.135 378.135 366.661 385.325 352.549C393.5 336.506 393.5 315.504 393.5 273.5V238.5C393.5 196.496 393.5 175.494 385.325 159.451C378.135 145.339 366.661 133.865 352.549 126.674C336.506 118.5 315.504 118.5 273.5 118.5H238.5C196.496 118.5 175.494 118.5 159.451 126.674C145.339 133.865 133.865 145.339 126.674 159.451ZM273.5 143.5H238.5C217.086 143.5 202.528 143.519 191.276 144.439C180.316 145.334 174.711 146.957 170.801 148.95C161.392 153.743 153.743 161.392 148.95 170.801C146.957 174.711 145.334 180.316 144.439 191.276C143.519 202.528 143.5 217.086 143.5 238.5V273.5C143.5 294.915 143.519 309.471 144.439 320.724C145.334 331.685 146.957 337.29 148.95 341.2C153.743 350.607 161.392 358.256 170.801 363.05C174.711 365.042 180.316 366.666 191.276 367.561C202.528 368.48 217.086 368.5 238.5 368.5H273.5C294.915 368.5 309.471 368.48 320.724 367.561C331.685 366.666 337.29 365.042 341.2 363.05C350.607 358.256 358.256 350.607 363.05 341.2C365.042 337.29 366.666 331.685 367.561 320.724C368.48 309.471 368.5 294.915 368.5 273.5V238.5C368.5 217.086 368.48 202.528 367.561 191.276C366.666 180.316 365.042 174.711 363.05 170.801C358.256 161.392 350.607 153.743 341.2 148.95C337.29 146.957 331.685 145.334 320.724 144.439C309.471 143.519 294.915 143.5 273.5 143.5Z" fill="#0F0F0F"/>
</svg>
