<svg width="512" height="512" viewBox="0 0 512 512" fill="none" xmlns="http://www.w3.org/2000/svg">
<circle cx="256" cy="256" r="256" fill="white"/>
<path fill-rule="evenodd" clip-rule="evenodd" d="M399 375H347V284.013C347 259.053 335.989 245.127 316.242 245.127C294.753 245.127 282 259.638 282 284.013V375H230V206H282V225.005C282 225.005 298.315 196.377 335.079 196.377C371.856 196.377 399 218.819 399 265.255V375ZM170.746 178.972C153.209 178.972 139 164.646 139 146.979C139 129.325 153.209 115 170.746 115C188.27 115 202.479 129.325 202.479 146.979C202.492 164.646 188.27 178.972 170.746 178.972ZM139 375H204V206H139V375Z" fill="black"/>
</svg>
