<svg width="512" height="512" viewBox="0 0 512 512" fill="none" xmlns="http://www.w3.org/2000/svg">
<circle cx="256" cy="256" r="256" fill="white"/>
<g clip-path="url(#clip0_45_32)">
<path fill-rule="evenodd" clip-rule="evenodd" d="M227.827 294.792V210.614C257.71 224.676 280.854 238.26 308.227 252.905C285.65 265.425 257.71 279.474 227.827 294.792ZM394.365 168.749C389.21 161.958 380.425 156.671 371.071 154.921C343.579 149.7 172.065 149.686 144.587 154.921C137.087 156.327 130.408 159.726 124.67 165.007C100.495 187.445 108.07 307.776 113.897 327.267C116.348 335.704 119.515 341.789 123.505 345.783C128.645 351.063 135.682 354.699 143.765 356.33C166.402 361.012 283.021 363.63 370.593 357.033C378.661 355.627 385.803 351.874 391.436 346.369C413.789 324.02 412.265 196.932 394.365 168.749Z" fill="black"/>
</g>
<defs>
<clipPath id="clip0_45_32">
<rect width="300" height="300" fill="white" transform="translate(108 106)"/>
</clipPath>
</defs>
</svg>
